<svg xmlns="http://www.w3.org/2000/svg" viewBox="0 0 64 64" role="img" aria-label="Inmobiliaria SL">
  <defs>
    <linearGradient id="g1" x1="0" y1="0" x2="1" y2="1">
      <stop offset="0" stop-color="#2563eb"/>
      <stop offset="1" stop-color="#1e40af"/>
    </linearGradient>
    <linearGradient id="g2" x1="0" y1="1" x2="1" y2="0">
      <stop offset="0" stop-color="#22c55e"/>
      <stop offset="1" stop-color="#15803d"/>
    </linearGradient>
  </defs>
  <rect x="2" y="2" width="60" height="60" rx="14" fill="#ffffff"/>
  <path d="M32 12 14 26v22a4 4 0 0 0 4 4h10V39a3 3 0 0 1 3-3h2a3 3 0 0 1 3 3v13h9a4 4 0 0 0 4-4V26L32 12z" fill="url(#g1)"/>
  <path d="M18 52c12-3 18-13 28-28 2-3 6-4 10-2-12 5-19 18-27 29-2 3-6 4-11 1z" fill="url(#g2)" opacity="0.95"/>
  <path d="M44 18h10v10h-4v-6h-6v-4z" fill="#0f172a" opacity="0.12"/>
</svg>
